# File created by Blade
# Date/Time:  Wed Jan 21 17:21:31 2015
# Frame Rate: 120.000 fps
#------------------------------------------------------
:FULLY-SPECIFIED
:DEGREES
1212
root 17.358320 20.207140 -6.003137 -167.656349 1.780594 -198.034629
Spine 60.785978 22.357123 -1.664671
Head -30.085912 -22.594312 9.829765
LeftShoulder 5.593283 -31.401134 9.489905
LeftArm 20.664103 56.019356 -42.925243
LeftForeArm 44.165814 -0.000000 125.544856
LeftHand -9.593700 -0.000000 12.819854
LeftHandThumb1 -26.253704 0.000000 33.147579
RightShoulder 12.211316 3.506885 -4.773180
RightArm 24.517553 16.124090 44.377654
RightForeArm -13.774895 -0.000000 12.973038
RightHand -7.213425 -0.000000 -2.683049
RightHandThumb1 -24.326973 -0.000000 -32.862282
LeftUpLeg -89.828519 -9.399957 -21.957588
LeftLeg 93.023493 -0.000000 -0.000000
LeftFoot -34.550853 35.351009 -11.770747
LeftToeBase 24.807357 -0.000000 -0.000000
RightUpLeg -22.181411 -10.690299 -7.561196
RightLeg 97.598464 -0.000000 -0.000000
RightFoot 51.918602 -18.602591 8.841486
RightToeBase 43.834663 -0.000000 -0.000000
1213
root 17.299047 20.315651 -6.159059 -167.358346 1.985348 -198.140040
Spine 60.121850 22.933631 -1.938157
Head -30.151211 -22.879251 9.935123
LeftShoulder 6.142470 -32.215065 9.813906
LeftArm 20.750660 56.904659 -43.244173
LeftForeArm 44.445551 -0.000000 124.869227
LeftHand -10.246373 0.000000 12.717921
LeftHandThumb1 -26.253704 0.000000 33.147579
RightShoulder 11.980604 3.252063 -4.807204
RightArm 24.937233 15.164188 44.515916
RightForeArm -14.251831 -0.000000 13.311076
RightHand -7.099554 -0.000000 -2.281440
RightHandThumb1 -24.326973 -0.000000 -32.862282
LeftUpLeg -89.624178 -9.551582 -22.079953
LeftLeg 92.921010 -0.000000 -0.000000
LeftFoot -35.069213 35.505466 -11.980464
LeftToeBase 24.815564 -0.000000 -0.000000
RightUpLeg -21.929167 -10.388456 -7.832465
RightLeg 96.857164 -0.000000 -0.000000
RightFoot 51.938299 -18.314677 8.885246
RightToeBase 44.247685 -0.000000 -0.000000
1214
root 17.246122 20.432855 -6.319006 -167.134288 2.207569 -198.174056
Spine 59.541421 23.455201 -2.144563
Head -30.250961 -23.070148 9.940209
LeftShoulder 6.674721 -33.025634 10.100352
LeftArm 20.694609 57.600897 -43.703434
LeftForeArm 44.635218 -0.000000 124.151030
LeftHand -10.528609 0.000000 12.201522
LeftHandThumb1 -26.253704 0.000000 33.147579
RightShoulder 11.836881 3.029977 -4.857393
RightArm 25.357081 13.912648 44.459555
RightForeArm -14.009576 -0.000000 13.655923
RightHand -7.188582 -0.000000 -2.276897
RightHandThumb1 -24.326973 -0.000000 -32.862282
LeftUpLeg -89.335381 -9.614139 -22.161885
LeftLeg 92.803873 -0.000000 -0.000000
LeftFoot -35.597550 35.608547 -12.193164
LeftToeBase 24.807764 -0.000000 -0.000000
RightUpLeg -21.627570 -10.028292 -8.031035
RightLeg 96.044517 -0.000000 -0.000000
RightFoot 52.286607 -18.408656 9.004693
RightToeBase 44.475021 -0.000000 -0.000000
1215
root 17.197197 20.559474 -6.468974 -166.866195 2.500240 -198.111498
Spine 58.990128 24.042478 -2.166003
Head -30.409251 -23.407621 9.841338
LeftShoulder 7.280911 -33.744544 10.226140
LeftArm 20.938220 58.266845 -43.883936
LeftForeArm 44.404473 0.000000 123.317721
LeftHand -10.738855 -0.000000 12.049722
LeftHandThumb1 -26.253704 0.000000 33.147579
RightShoulder 11.629029 2.931254 -4.940741
RightArm 25.793213 12.736772 44.388507
RightForeArm -14.136126 -0.000000 13.895356
RightHand -7.190155 0.000000 -2.024971
RightHandThumb1 -24.326973 -0.000000 -32.862282
LeftUpLeg -89.111922 -9.628432 -22.119026
LeftLeg 92.658756 -0.000000 -0.000000
LeftFoot -36.115738 35.750069 -12.414932
LeftToeBase 24.858390 -0.000000 -0.000000
RightUpLeg -21.436756 -9.470588 -8.084377
RightLeg 95.216459 -0.000000 -0.000000
RightFoot 52.659489 -18.536590 9.129587
RightToeBase 44.756880 -0.000000 -0.000000
1216
root 17.147376 20.698697 -6.627490 -166.652517 2.824884 -198.089823
Spine 58.462625 24.510883 -2.348472
Head -30.628790 -23.602949 9.649770
LeftShoulder 7.722623 -34.385005 10.301439
LeftArm 21.205286 58.859901 -43.935947
LeftForeArm 44.122224 -0.000000 122.506387
LeftHand -10.914091 -0.000000 12.121008
LeftHandThumb1 -26.253704 0.000000 33.147579
RightShoulder 11.589991 2.847843 -5.080468
RightArm 26.483685 12.198683 44.729612
RightForeArm -14.594279 -0.000000 13.962850
RightHand -7.121092 -0.000000 -1.403594
RightHandThumb1 -24.326973 -0.000000 -32.862282
LeftUpLeg -88.775096 -9.617459 -22.119894
LeftLeg 92.447611 -0.000000 -0.000000
LeftFoot -36.676639 35.882191 -12.667042
LeftToeBase 24.872172 -0.000000 -0.000000
RightUpLeg -21.190180 -8.798915 -8.182350
RightLeg 94.348213 -0.000000 -0.000000
RightFoot 53.049152 -18.579035 9.347001
RightToeBase 45.021245 -0.000000 -0.000000
1217
root 17.101574 20.847822 -6.786835 -166.454580 3.192044 -198.025954
Spine 57.996854 25.017302 -2.432784
Head -30.905187 -23.854705 9.454446
LeftShoulder 8.267152 -35.025622 10.247804
LeftArm 21.333486 59.351432 -44.091979
LeftForeArm 43.802800 -0.000000 121.648083
LeftHand -11.016092 0.000000 11.620209
LeftHandThumb1 -26.253704 0.000000 33.147579
RightShoulder 11.593857 2.994298 -5.223535
RightArm 26.967343 11.445222 45.000665
RightForeArm -15.045896 0.000000 13.942658
RightHand -6.983992 -0.000000 -1.503018
RightHandThumb1 -24.326973 -0.000000 -32.862282
LeftUpLeg -88.417017 -9.547766 -22.094519
LeftLeg 92.213319 -0.000000 -0.000000
LeftFoot -37.203471 36.060239 -12.891301
LeftToeBase 24.817758 -0.000000 -0.000000
RightUpLeg -20.951369 -8.039060 -8.237414
RightLeg 93.432886 -0.000000 -0.000000
RightFoot 53.501715 -18.687839 9.603941
RightToeBase 45.236994 -0.000000 -0.000000
